inDegrees=no
num_controls=7
num_derivatives=13
num_iterations=190
num_multipliers=7
num_parameters=0
num_slacks=7
num_states=26
objective=5.020142
objective_accelerations=0.399684
objective_balance=0.044436
objective_effort=0.410557
objective_height=4.103475
objective_ligament=0.061991
solver_duration=2106.859525
status=Solve_Succeeded
success=true
DataType=double
version=3
OpenSimVersion=4.4-2022-07-23-0e9fedc
endheader
time	/jointset/ground_pelvis/pelvis_tilt/value	/jointset/ground_pelvis/pelvis_tx/value	/jointset/ground_pelvis/pelvis_ty/value	/jointset/hip_l/hip_flexion_l/value	/jointset/hip_l/hip_adduction_l/value	/jointset/hip_l/hip_rotation_l/value	/jointset/back/lumbar_extension/value	/jointset/patellofemoral_l/patellar_flexion_l/value	/jointset/knee_l/knee_flexion_l/value	/jointset/knee_l/knee_adduction_l/value	/jointset/knee_l/knee_rotation_l/value	/jointset/ankle_l/ankle_angle_l/value	/jointset/subtalar_l/subtalar_angle_l/value	/jointset/ground_pelvis/pelvis_tilt/speed	/jointset/ground_pelvis/pelvis_tx/speed	/jointset/ground_pelvis/pelvis_ty/speed	/jointset/hip_l/hip_flexion_l/speed	/jointset/hip_l/hip_adduction_l/speed	/jointset/hip_l/hip_rotation_l/speed	/jointset/back/lumbar_extension/speed	/jointset/patellofemoral_l/patellar_flexion_l/speed	/jointset/knee_l/knee_flexion_l/speed	/jointset/knee_l/knee_adduction_l/speed	/jointset/knee_l/knee_rotation_l/speed	/jointset/ankle_l/ankle_angle_l/speed	/jointset/subtalar_l/subtalar_angle_l/speed	/forceset/tau_hip_flexion_l	/forceset/tau_hip_adduction_l	/forceset/tau_hip_rotation_l	/forceset/tau_knee_flexion_l	/forceset/tau_ankle_angle_l	/forceset/tau_subtalar_angle_l	/forceset/tau_lumbar_extension	lambda_cid13_p0	lambda_cid13_p1	lambda_cid13_p2	lambda_cid13_p3	lambda_cid13_p4	lambda_cid13_p5	lambda_cid14_p0	/jointset/ground_pelvis/pelvis_tilt/accel	/jointset/ground_pelvis/pelvis_tx/accel	/jointset/ground_pelvis/pelvis_ty/accel	/jointset/hip_l/hip_flexion_l/accel	/jointset/hip_l/hip_adduction_l/accel	/jointset/hip_l/hip_rotation_l/accel	/jointset/back/lumbar_extension/accel	/jointset/patellofemoral_l/patellar_flexion_l/accel	/jointset/knee_l/knee_flexion_l/accel	/jointset/knee_l/knee_adduction_l/accel	/jointset/knee_l/knee_rotation_l/accel	/jointset/ankle_l/ankle_angle_l/accel	/jointset/subtalar_l/subtalar_angle_l/accel	gamma_cid13_p0	gamma_cid13_p1	gamma_cid13_p2	gamma_cid13_p3	gamma_cid13_p4	gamma_cid13_p5	gamma_cid14_p0
0.5	-0.4367864757476587	-0.08071095294588769	0.7928861878996619	1.135325371740357	-0.305464758015948	-0.117960997616938	-0.3161743653072395	0.4949177221541856	0.4949177221541857	-0.1744427218745949	0.1744999718338199	-0.05197922693104906	-0.0605072182407051	-0.7448368169830865	-0.3114499061597596	-0.3721297405028248	2.034403892960472	-0.07425945883975393	0.4208968977428588	-0.6293535697808506	1.256050338170901	1.256050338170938	-0.0007881990762553094	4.048666190343185e-05	0.01152054536206378	-0.08242016377064081	-0.2346846194259782	0.009652241414155245	-0.01829527102653331	-0.1714968185792403	0.1726489262036996	0.04385675028274726	0.2119515496583139	15.88589348346439	-24.89910789511098	7.074562310478342	-4.912219526798458	-612.1593010584409	-67.13130828422831	-37.61146601660322	0.4341233859555577	0.5896129195575173	-0.1793158534632577	-1.301517604461635	0.3309931984619824	-0.2081048459170004	1.519580199484613	-0.7739336798905806	-0.7739336798905907	0.01722538056488693	-0.01958898028686764	0.1690229862768019	0.3546546520954589	2.94326152030421e-08	-5.235168956746805e-07	4.14892436398151e-08	-9.016887067086932e-08	-1.046937406155005e-07	2.572266347058589e-08	-6.693470515291979e-08
0.51	-0.4442117050262914	-0.0837955848441011	0.789156684580635	1.155600969490847	-0.3061913435854648	-0.1137638776017235	-0.3223916423508319	0.507437855763754	0.5074378557637427	-0.1744504910129084	0.1745005347900736	-0.05185580040101365	-0.06131423014256777	-0.740111712837391	-0.3054436782288144	-0.3736968177115566	2.020447125080534	-0.07105573615725644	0.4184739062148899	-0.6140258660082447	1.247806994476858	1.247806994476776	-0.0007611995087401802	7.077466670099493e-05	0.01315596343009838	-0.07898022408453163	-0.242466718121588	0.0106177591674184	-0.0182257759169336	-0.1721122879225082	0.1735160519731003	0.04485585265166597	0.2179537287169706	15.97933947130531	-25.23695262781955	7.000005216486451	-5.085352256093612	-615.6952530733624	-66.94101309697078	-37.16132627530242	0.5063017074348378	0.6110285619065174	-0.1343073525741597	-1.483038603713742	0.3154267043532983	-0.2674483317392558	1.550761405597068	-0.8749299800178972	-0.8749299800358467	-0.003992254921034289	0.01409491597181843	0.1594822261615047	0.3390388627235106	3.262704514947278e-08	-5.078747605454023e-07	2.428460994010468e-08	-9.503915203561088e-08	-9.020050213882803e-08	2.847356924690134e-08	-6.371696877269202e-08
0.52	-0.4515867637077567	-0.08681917429659704	0.7854137297499212	1.175728943117718	-0.3068858189479168	-0.1095925979069004	-0.3284533631688141	0.5198704768832108	0.5198704768832104	-0.1744578760554787	0.1745013520713842	-0.05171628348847431	-0.06208676760039843	-0.7348026975493648	-0.299241417016261	-0.3748200428400366	2.004879068242452	-0.06783741742635957	0.4157288336668256	-0.5982423246576976	1.238547840148553	1.238547840148352	-0.0007113799318619302	9.135167584663255e-05	0.01473862186191613	-0.0755252749642291	-0.2502488168173814	0.01158327692062729	-0.01815628080729195	-0.1727277572657826	0.1743831777425075	0.04585495502053306	0.2239559077754467	16.065567591793	-25.5745836973183	6.92661346217487	-5.241849920430377	-619.3404828035867	-66.78214250089682	-36.69127996985323	0.550905614421496	0.62881957587912	-0.09054543741293952	-1.623775396090109	0.3339124081418537	-0.2725210499360848	1.610747715072806	-0.9770958067429364	-0.977095806742893	0.02178938243745993	-0.02153117941724065	0.1584710590333744	0.3576565389340922	3.669604382887702e-08	-4.913818794847728e-07	4.124500753472889e-09	-1.00613802304623e-07	-7.508269706276469e-08	3.039330985718155e-08	-5.987161289911686e-08
0.53	-0.4589058543310554	-0.08977982211217775	0.7816617616798255	1.19569336764131	-0.3075480673751748	-0.105450356602405	-0.3343551070228972	0.5322056036000812	0.5322056036000669	-0.1744646029824078	0.1745023563267046	-0.05156117025726911	-0.06282470264922313	-0.7289184329990004	-0.2928610314777113	-0.3754981428686864	1.987743447244294	-0.06461769761021427	0.4126685033363479	-0.5820487559355686	1.228314227711452	1.228314227711463	-0.0006386884064789552	0.0001097517087098877	0.01627320859279137	-0.07206717575861055	-0.2578535989742567	0.01241181743047547	-0.01812090743521319	-0.1733924454503373	0.1753352759765793	0.04675513232371518	0.2297764270879567	16.18148751111388	-25.87751812950111	6.851194287062093	-5.400092036987937	-622.8946371578983	-66.57704348461651	-36.20202960950737	0.6217347508572918	0.646694527659513	-0.0451414674835947	-1.797815711279581	0.315262831308237	-0.3304916462925027	1.632314984355948	-1.070973718905649	-1.07097371887405	-0.0007844354291681194	0.0135300251205237	0.1493306036785934	0.3391463075054286	3.765831080801113e-08	-4.697346031783069e-07	-7.132378069065755e-09	-1.020528526245815e-07	-6.368231493782073e-08	3.277242987090198e-08	-5.673137742127214e-08
0.54	-0.4661631927337414	-0.09267585677541054	0.7779052727730643	1.215478563902969	-0.3081782663916817	-0.1013402591255421	-0.3400931844830506	0.5444334982412382	0.5444334982412433	-0.1744707616886817	0.1745035454684331	-0.05139103553403698	-0.0635282047667657	-0.7224522534281289	-0.2863187865466797	-0.3757242101729119	1.969033415862086	-0.06142753527578144	0.4093000681383232	-0.5655090458705186	1.217101425005885	1.217101425006108	-0.0005977358018043814	0.0001283289608689183	0.01774292026622575	-0.06863868870780207	-0.2654583811313156	0.01324035794033521	-0.01808553406317484	-0.1740571336348362	0.176287374210704	0.04765530962691786	0.2355969464002435	16.28874069759327	-26.18022105093568	6.777206950206622	-5.535329860817356	-626.5773082757725	-66.40391061369212	-35.69389034492673	0.6672886185225914	0.6611914543754455	-0.0001388925280995902	-1.938657472900027	0.3280009117993806	-0.3341420234454352	1.679975983656836	-1.172933860436117	-1.172933860436088	0.01544159829575835	-0.0214957355581082	0.1454960475451327	0.3517341079720553	3.51833427145059e-08	-4.423845917062347e-07	-8.538874361118257e-09	-9.891634555409775e-08	-5.639482629071103e-08	3.565979943736477e-08	-5.43712751472143e-08
0.55	-0.4733530719931697	-0.09550573015816312	0.774148775482377	1.235069027336538	-0.3087767083710948	-0.09726530527959995	-0.3456641968091292	0.5565444671502209	0.5565444671502267	-0.1744766060838708	0.1745048583197576	-0.05120653370622618	-0.06419756861737799	-0.7154323165300348	-0.2796350598191638	-0.3754998016516827	1.948810776853653	-0.05826927648003445	0.4056387729765579	-0.548647167634063	1.204936195088382	1.204936195088536	-0.0005756311870576804	0.0001370696197896264	0.01914477192324658	-0.06524272745289215	-0.2728720017706994	0.01396031764533344	-0.0180755871623495	-0.1747078796970771	0.1772343996202521	0.04845754122370816	0.2412216052924337	16.40003583038234	-26.44441247607565	6.700870622128058	-5.651820309829786	-630.1152397967869	-66.17517664306577	-35.16881135222125	0.7330366550941098	0.6750683682953545	0.04503718733415675	-2.101343484614624	0.3085429233631112	-0.389970650242412	1.696231500282789	-1.26173119573646	-1.261731195747121	-0.005159868315851114	0.01245401402339606	0.1356288326185285	0.3322978342712876	3.274942406632581e-08	-4.139082353597031e-07	-9.901848415169835e-09	-9.540733180996991e-08	-4.909762549491214e-08	3.781414186172155e-08	-5.17503951245624e-08
